<svg width="136" height="136" viewBox="0 0 136 136" fill="none" xmlns="http://www.w3.org/2000/svg">
<path d="M117.708 57.5507L109.956 34.289C108.831 30.9031 106.668 27.9577 103.774 25.8712C100.88 23.7848 97.4022 22.6635 93.8344 22.6667H79.3334V11.3334H56.6667V22.6667H42.1657C38.5979 22.6635 35.1199 23.7848 32.2257 25.8712C29.3316 27.9577 27.1686 30.9031 26.044 34.289L18.292 57.5507C16.2328 58.4147 14.4743 59.867 13.2365 61.7257C11.9987 63.5844 11.3367 65.7669 11.3334 68V96.3334C11.3334 100.6 13.7304 104.278 17.221 106.21C17.1474 106.584 17 106.924 17 107.315V119C17 120.503 17.5971 121.944 18.6598 123.007C19.7225 124.07 21.1638 124.667 22.6667 124.667H28.3334C29.8363 124.667 31.2776 124.07 32.3403 123.007C33.403 121.944 34 120.503 34 119V107.667H102V119C102 120.503 102.597 121.944 103.66 123.007C104.722 124.07 106.164 124.667 107.667 124.667H113.333C114.836 124.667 116.278 124.07 117.34 123.007C118.403 121.944 119 120.503 119 119V107.315C119 106.924 118.853 106.579 118.779 106.21C120.555 105.242 122.038 103.815 123.074 102.077C124.11 100.34 124.66 98.3561 124.667 96.3334V68C124.667 63.3024 121.788 59.2677 117.708 57.5507ZM22.6667 96.3334V68H113.333L113.345 96.3334H22.6667ZM42.1657 34H93.8287C96.271 34 98.4357 35.5527 99.2064 37.876L105.474 56.6667H30.5264L36.788 37.876C37.164 36.7472 37.8858 35.7654 38.851 35.0697C39.8162 34.374 40.9759 33.9998 42.1657 34Z" fill="#333562"/>
<path d="M36.8334 90.6666C41.5278 90.6666 45.3334 86.861 45.3334 82.1666C45.3334 77.4722 41.5278 73.6666 36.8334 73.6666C32.139 73.6666 28.3334 77.4722 28.3334 82.1666C28.3334 86.861 32.139 90.6666 36.8334 90.6666Z" fill="#333562"/>
<path d="M99.1666 90.6666C103.861 90.6666 107.667 86.861 107.667 82.1666C107.667 77.4722 103.861 73.6666 99.1666 73.6666C94.4722 73.6666 90.6666 77.4722 90.6666 82.1666C90.6666 86.861 94.4722 90.6666 99.1666 90.6666Z" fill="#333562"/>
</svg>
