<svg width="33" height="19" viewBox="0 0 33 19" fill="none" xmlns="http://www.w3.org/2000/svg">
<path d="M30.8901 15.5793C31.5195 15.3587 32.053 15.0038 32.4271 14.557C32.8012 14.1103 33.0001 13.5903 33 13.0593V11.1392C33.0002 10.2671 32.625 9.41933 31.9327 8.72774C31.2405 8.03615 30.27 7.53943 29.172 7.31477L24.8552 6.43149L21.6748 2.03566C21.2282 1.41856 20.5746 0.904393 19.7818 0.546456C18.989 0.188518 18.086 -0.000154403 17.1662 9.48082e-08H10.1929C9.11042 -3.38089e-05 8.05541 0.261386 7.17734 0.747212C6.29927 1.23304 5.64268 1.91863 5.30063 2.70683L3.60319 6.61353C2.55793 6.86692 1.64509 7.36938 0.997171 8.04797C0.349247 8.72656 -4.27579e-05 9.54597 3.92588e-09 10.3873V13.0593C3.92588e-09 14.1784 0.86625 15.1424 2.10994 15.5793C2.27511 16.5054 2.8621 17.3568 3.76692 17.9825C4.67174 18.6083 5.83595 18.968 7.05329 18.998C8.27062 19.0279 9.46248 18.7262 10.4177 18.1462C11.3729 17.5663 12.0297 16.7455 12.2719 15.8294H20.7281C20.9703 16.7455 21.6271 17.5663 22.5823 18.1462C23.5375 18.7262 24.7294 19.0279 25.9467 18.998C27.164 18.968 28.3283 18.6083 29.2331 17.9825C30.1379 17.3568 30.7249 16.5054 30.8901 15.5793ZM10.1929 1.58294H12.375V6.33176H5.89875L7.25588 3.20704C7.4612 2.73391 7.8554 2.32241 8.38257 2.0309C8.90974 1.73938 9.54312 1.58266 10.1929 1.58294ZM19.8701 2.80497L22.4256 6.33176H14.4375V1.58294H17.1662C17.7179 1.58308 18.2596 1.69646 18.735 1.91133C19.2104 2.1262 19.6023 2.43474 19.8701 2.80497ZM4.125 15.0379C4.125 14.7261 4.20502 14.4174 4.3605 14.1293C4.51597 13.8412 4.74386 13.5795 5.03114 13.359C5.31842 13.1385 5.65947 12.9636 6.03482 12.8443C6.41017 12.7249 6.81247 12.6635 7.21875 12.6635C7.62503 12.6635 8.02733 12.7249 8.40268 12.8443C8.77803 12.9636 9.11908 13.1385 9.40636 13.359C9.69364 13.5795 9.92153 13.8412 10.077 14.1293C10.2325 14.4174 10.3125 14.7261 10.3125 15.0379C10.3125 15.6677 9.98655 16.2716 9.40636 16.7169C8.82617 17.1622 8.03926 17.4124 7.21875 17.4124C6.39824 17.4124 5.61133 17.1622 5.03114 16.7169C4.45095 16.2716 4.125 15.6677 4.125 15.0379ZM22.6875 15.0379C22.6875 14.4082 23.0134 13.8043 23.5936 13.359C24.1738 12.9137 24.9607 12.6635 25.7812 12.6635C26.6018 12.6635 27.3887 12.9137 27.9689 13.359C28.5491 13.8043 28.875 14.4082 28.875 15.0379C28.875 15.6677 28.5491 16.2716 27.9689 16.7169C27.3887 17.1622 26.6018 17.4124 25.7812 17.4124C24.9607 17.4124 24.1738 17.1622 23.5936 16.7169C23.0134 16.2716 22.6875 15.6677 22.6875 15.0379Z" fill="#F5F6FB"/>
</svg>
