<svg width="190" height="48" viewBox="0 0 190 48" fill="none" xmlns="http://www.w3.org/2000/svg">
<path d="M157.227 22.6906C157.225 22.2703 157.326 21.8558 157.523 21.4823C157.725 21.1296 157.974 20.8045 158.263 20.5157C158.581 20.229 158.949 19.9999 159.349 19.839C159.719 19.6672 160.125 19.5843 160.534 19.5974H168.578C169.003 19.5784 169.427 19.6614 169.812 19.839C170.203 19.9901 170.556 20.2207 170.848 20.5157C171.167 20.7905 171.434 21.1176 171.638 21.4823C171.835 21.8558 171.936 22.2703 171.934 22.6906V30.8102C171.941 31.2156 171.839 31.6155 171.638 31.9702C171.449 32.3579 171.18 32.7033 170.848 32.9851C170.543 33.265 170.193 33.4936 169.812 33.6618C169.419 33.8156 169.001 33.8975 168.578 33.9035H160.534C160.127 33.8928 159.726 33.8109 159.349 33.6618C158.959 33.4827 158.594 33.2553 158.263 32.9851C157.962 32.6883 157.712 32.3455 157.523 31.9702C157.322 31.6155 157.22 31.2156 157.227 30.8102V22.6906ZM159.546 29.5053C159.546 30.9069 160.237 31.6319 161.669 31.6319H167.394C168.874 31.6319 169.615 30.9069 169.615 29.5053V23.9955C169.615 22.5456 168.874 21.8689 167.394 21.8689H161.669C160.237 21.8689 159.546 22.5456 159.546 23.9955V29.5053Z" fill="black"/>
<path d="M63.5539 15.0059V26.4121C63.6032 27.1854 63.5539 27.9587 63.5539 28.7803C63.6101 29.2297 63.6101 29.6841 63.5539 30.1336C63.4682 30.9543 63.1985 31.7465 62.7642 32.4535C62.3135 33.1488 61.6836 33.7156 60.9381 34.0967V28.0553C60.9875 24.8171 60.9875 22.4005 60.9381 21.1439V19.984C60.9124 19.5146 60.9456 19.0439 61.0368 18.5824C61.1613 17.7079 61.5379 16.8863 62.1226 16.2141C62.5009 15.7112 62.9901 15.2982 63.5539 15.0059Z" fill="black"/>
<path d="M123.37 14.7161V28.4905C123.398 28.9412 123.398 29.3931 123.37 29.8438C123.284 30.6645 123.015 31.4567 122.58 32.1637C122.13 32.859 121.5 33.4258 120.754 33.8069V27.7655C120.754 24.5273 120.804 22.1108 120.754 20.8541V19.6942C120.741 19.2264 120.758 18.7583 120.804 18.2926C120.956 17.4025 121.348 16.5684 121.939 15.876C122.33 15.3979 122.817 15.0031 123.37 14.7161Z" fill="#255AB6"/>
<path d="M156.19 17.0841C156.182 17.7518 156.03 18.4103 155.746 19.0173L154.315 21.2406L151.206 26.4603L150.762 27.1853V29.5052C150.769 29.6044 150.752 29.7037 150.712 29.7952C150.716 29.9577 150.699 30.12 150.663 30.2785C150.535 30.9306 150.284 31.5536 149.923 32.1151C149.436 32.8279 148.774 33.4095 147.998 33.8067V27.2337L147.899 27.137C147.795 26.9363 147.713 26.7257 147.652 26.5087L147.554 26.6054C146.418 24.5271 145.135 22.4489 143.753 20.2739L143.655 20.1773L143.359 19.694C142.931 18.993 142.709 18.1904 142.717 17.3741C142.682 16.5517 142.87 15.7349 143.26 15.0058C144.74 17.1324 145.876 18.824 146.665 20.0323L149.38 24.0438L152.193 19.8873L155.253 15.3925L155.598 14.8608C156.005 15.5327 156.21 16.3032 156.19 17.0841Z" fill="black"/>
<path d="M141.405 24.0685C141.356 24.9868 141.405 26.7751 141.405 29.24V33.7348C140.693 33.4829 140.062 33.0491 139.579 32.4782C139.365 32.2724 139.197 32.0256 139.085 31.7532C138.934 31.4487 138.834 31.1223 138.789 30.7866C138.734 30.4504 138.734 30.1077 138.789 29.7716C138.789 29.1916 138.74 28.6117 138.789 28.0317V22.5219C138.577 22.2372 138.292 22.0116 137.963 21.8675C137.634 21.7235 137.272 21.6658 136.914 21.7003H131.139C130.788 21.6646 130.433 21.722 130.112 21.8665C129.79 22.0111 129.515 22.2374 129.313 22.5219V28.0317C129.363 28.6117 129.313 29.1916 129.313 29.7716C129.369 30.1077 129.369 30.4504 129.313 30.7866C129.266 31.1063 129.166 31.4164 129.017 31.7049C128.908 31.9926 128.74 32.2557 128.524 32.4782C128.04 33.0491 127.41 33.4829 126.698 33.7348V29.24C126.747 26.7751 126.747 24.9868 126.698 24.0685V23.1985C126.693 22.8577 126.726 22.5174 126.796 22.1836C126.948 21.4732 127.328 20.8293 127.882 20.347C128.297 19.9804 128.784 19.7008 129.313 19.5254H138.098C138.508 19.5063 138.915 19.5895 139.283 19.767C139.683 19.9279 140.05 20.157 140.369 20.4437C140.67 20.7405 140.92 21.0833 141.109 21.4586C141.309 21.8133 141.411 22.2132 141.405 22.6186V24.0685Z" fill="#255AB6"/>
<path d="M174.895 29.022C174.944 28.1037 174.944 26.3154 174.895 23.8989V19.4041C175.606 19.6336 176.238 20.0519 176.721 20.6123C176.926 20.8425 177.093 21.1036 177.214 21.3856C177.389 21.6807 177.49 22.0118 177.51 22.3523C177.571 22.6871 177.588 23.0282 177.56 23.3672C177.51 23.9472 177.56 24.5272 177.56 25.1072C177.56 25.6871 177.51 27.1854 177.51 30.5686C177.714 30.8659 177.995 31.1038 178.325 31.2569C178.656 31.4101 179.022 31.4729 179.386 31.4386H185.16C185.512 31.4743 185.867 31.4168 186.188 31.2723C186.509 31.1278 186.785 30.9014 186.986 30.6169V23.3672C186.958 23.0295 186.958 22.69 186.986 22.3523C187.056 22.0222 187.155 21.6988 187.282 21.3856C187.403 21.1036 187.57 20.8425 187.776 20.6123C188.273 20.0673 188.9 19.652 189.602 19.4041V23.8989C189.602 26.3154 189.553 28.152 189.602 29.0703V29.8919C189.615 30.2471 189.599 30.6027 189.553 30.9552C189.388 31.6585 188.989 32.2879 188.417 32.7435C188.011 33.1322 187.522 33.4291 186.986 33.6135L186.246 33.7101H178.251C177.828 33.7042 177.409 33.6223 177.017 33.4685C176.633 33.2833 176.283 33.0385 175.98 32.7435C175.64 32.4894 175.369 32.1575 175.191 31.7769C175 31.4185 174.898 31.021 174.895 30.6169V29.022Z" fill="black"/>
<path d="M116.412 22.0623C116.369 21.8623 116.302 21.6677 116.214 21.4823C115.981 21.013 115.644 20.6003 115.227 20.274C114.738 19.8611 114.139 19.5929 113.5 19.5007H102.149C102.217 19.7075 102.317 19.903 102.445 20.0807C102.597 20.3835 102.797 20.6609 103.037 20.9023C103.352 21.2446 103.718 21.5379 104.123 21.7723L104.863 22.014H113.303C113.575 22.199 113.796 22.4483 113.944 22.7389C114.134 23.0777 114.204 23.4688 114.142 23.8506V24.2372H105.11C104.69 24.2266 104.272 24.2921 103.876 24.4305C103.495 24.5987 103.145 24.8273 102.84 25.1072C102.508 25.389 102.24 25.7345 102.05 26.1221C101.859 26.4805 101.758 26.878 101.754 27.2821V30.6653C101.752 31.0701 101.854 31.469 102.05 31.8252C102.24 32.2129 102.508 32.5583 102.84 32.8402C103.145 33.12 103.495 33.3486 103.876 33.5168C104.269 33.6707 104.687 33.7526 105.11 33.7585H113.155C113.577 33.7526 113.996 33.6707 114.388 33.5168C114.77 33.3486 115.12 33.12 115.425 32.8402C115.742 32.5565 115.994 32.2106 116.165 31.8252C116.362 31.469 116.463 31.0701 116.461 30.6653V22.5939C116.472 22.4153 116.455 22.2361 116.412 22.0623ZM114.142 29.4087C114.142 30.8103 113.451 31.5352 111.97 31.5352H106.245C104.814 31.5352 104.123 30.8103 104.123 29.4087V28.6354C104.123 27.2337 104.814 26.5571 106.245 26.5571H111.97C113.451 26.5571 114.142 27.2337 114.142 28.6354V29.4087Z" fill="black"/>
<path d="M95.4847 27.6204C95.9071 27.6103 96.3246 27.5286 96.7185 27.3787C97.1018 27.1936 97.4518 26.9487 97.7549 26.6537C98.0552 26.3744 98.3054 26.0476 98.4952 25.6871C98.6918 25.3136 98.7934 24.8991 98.7914 24.4788V22.5939C98.7934 22.1737 98.6918 21.7592 98.4952 21.3856C98.293 21.0329 98.0441 20.7079 97.7549 20.419C97.4624 20.124 97.1091 19.8934 96.7185 19.7424C96.3317 19.57 95.9095 19.4873 95.4847 19.5007H87.4401C87.0148 19.4817 86.5913 19.5647 86.2062 19.7424C85.8157 19.8934 85.4624 20.124 85.1698 20.419C84.8512 20.6938 84.584 21.0209 84.3801 21.3856C84.1835 21.7592 84.082 22.1737 84.084 22.5939V30.7136C84.0759 30.8922 84.0925 31.071 84.1334 31.2452C84.1827 31.3419 84.1827 31.4869 84.2321 31.5835C84.4915 32.1459 84.88 32.6421 85.3672 33.0335C85.8729 33.4423 86.4914 33.6947 87.1439 33.7584H98.7914C98.5938 33.2234 98.2921 32.731 97.903 32.3085C97.5729 31.9758 97.1895 31.6983 96.7679 31.4869L96.0276 31.2452H87.2427C86.9519 31.0369 86.7216 30.7579 86.5744 30.4359C86.4273 30.1138 86.3684 29.7598 86.4036 29.4086V27.6204H95.4847ZM86.4036 23.8989C86.4036 22.4489 87.1439 21.7723 88.5258 21.7723H94.6457C94.8842 21.7689 95.1204 21.8184 95.3366 21.9173C95.5638 21.9704 95.7698 22.0881 95.9289 22.2556L96.3237 22.8356C96.4202 23.0656 96.4705 23.3118 96.4717 23.5605C96.4752 23.7941 96.4246 24.0255 96.3237 24.2372L95.9289 24.8171C95.7601 24.9838 95.5586 25.1154 95.3366 25.2038C95.1204 25.3026 94.8842 25.3522 94.6457 25.3488H86.4036V23.8989Z" fill="black"/>
<path d="M81.074 28.2487C81.074 27.4754 81.1234 26.6538 81.074 25.8321V13.991L80.087 14.7159L79.6428 15.1992C79.2734 15.671 78.9743 16.1918 78.7544 16.7459C78.6371 17.0559 78.5705 17.3821 78.557 17.7125C78.4908 18.1931 78.4578 18.6775 78.4583 19.1624V19.5007H69.7227C69.2975 19.4818 68.874 19.5647 68.4889 19.7424C68.0983 19.8934 67.745 20.1241 67.4525 20.419C67.1485 20.6951 66.8977 21.0226 66.7122 21.3857C66.5156 21.7592 66.414 22.1737 66.416 22.5939V30.7136C66.414 31.1184 66.5158 31.5173 66.7122 31.8736C66.8835 32.259 67.1357 32.6048 67.4525 32.8885C67.7576 33.1684 68.1078 33.397 68.4889 33.5652C68.8816 33.719 69.2998 33.8009 69.7227 33.8068H77.7673L78.4583 33.7101L78.8038 33.6135H79.0012C79.3823 33.4453 79.7325 33.2167 80.0376 32.9368C80.3689 32.655 80.6377 32.3095 80.8273 31.9219C81.0236 31.5656 81.1254 31.1668 81.1234 30.7619V29.2637C81.1269 28.9247 81.1104 28.5858 81.074 28.2487ZM76.6322 31.5352H70.9072C69.4266 31.5352 68.7357 30.8103 68.7357 29.4087V23.8989C68.7357 22.4489 69.4266 21.7723 70.9072 21.7723H76.6322C77.5699 21.7723 78.1622 22.0623 78.5076 22.6423C78.8531 23.2222 78.4583 25.5905 78.4583 27.5237V30.7136C78.1622 31.2453 77.5206 31.5352 76.6322 31.5352Z" fill="black"/>
<path d="M45.8937 23.8253C45.8937 36.4985 35.6201 46.7721 22.9469 46.7721C10.2737 46.7721 0 36.4985 0 23.8253C0 11.1521 10.2737 0.878418 22.9469 0.878418C35.6201 0.878418 45.8937 11.1521 45.8937 23.8253Z" fill="#255AB6"/>
<path d="M27.4867 38.6262C27.9098 38.6262 28.2527 38.2835 28.2527 37.8607C28.2527 37.4379 27.9098 37.0952 27.4867 37.0952C27.0637 37.0952 26.7207 37.4379 26.7207 37.8607C26.7207 38.2835 27.0637 38.6262 27.4867 38.6262Z" fill="white"/>
<path d="M24.5224 9.19709C23.2734 9.51259 22.101 10.0767 21.0754 10.8557C19.2418 12.2816 18.0155 14.3477 17.6426 16.6394V38.6262C18.7871 38.7916 19.9529 38.7338 21.0754 38.4561C22.3275 38.1419 23.5011 37.5724 24.5224 36.7833C26.3777 35.3436 27.6112 33.2487 27.9694 30.9287V9.0128C26.8189 8.86118 25.6502 8.92366 24.5224 9.19709ZM24.5224 29.9931C24.4382 31.026 24.0724 32.0161 23.4647 32.8558C22.857 33.6956 22.0306 34.3528 21.0754 34.7562C21.0754 26.2223 21.0612 20.1834 21.047 18.1279C21.047 18.0287 21.047 17.816 21.0754 17.5183C21.187 16.5114 21.5653 15.5523 22.1711 14.74C22.777 13.9277 23.5886 13.2915 24.5224 12.897C24.5366 21.9554 24.5366 28.4337 24.5366 29.5394C24.5366 29.5962 24.5366 29.7663 24.5224 29.9931Z" fill="white"/>
</svg>
