<svg width="69" height="22" viewBox="0 0 69 22" fill="none" xmlns="http://www.w3.org/2000/svg">
<path fill-rule="evenodd" clip-rule="evenodd" d="M13.4825 16.3137H31.1779H37.0768H54.7722C54.7722 17.7559 55.3049 19.1391 56.2531 20.1589C57.2012 21.1787 58.4872 21.7516 59.8282 21.7516C61.1691 21.7516 62.4551 21.1787 63.4032 20.1589C64.3514 19.1391 64.8841 17.7559 64.8841 16.3137H68.2547V10.8758C68.2547 8.86377 66.7548 7.25053 64.8841 7.25053H61.5135L56.4575 0H37.0768H31.1779H11.7972L6.74123 7.25053H3.37061C1.49992 7.25053 0 8.86377 0 10.8758V16.3137H3.37061C3.37061 17.7559 3.90329 19.1391 4.85146 20.1589C5.79963 21.1787 7.08562 21.7516 8.42654 21.7516C9.76745 21.7516 11.0534 21.1787 12.0016 20.1589C12.9498 19.1391 13.4825 17.7559 13.4825 16.3137ZM21.0663 2.71895H31.0578V5.4379V7.25053H21.0663V2.71895ZM12.6398 2.71895H18.5384V7.25053H9.33661L12.6398 2.71895ZM6.639 14.3911C7.11309 13.8812 7.75608 13.5947 8.42654 13.5947C9.09699 13.5947 9.73999 13.8812 10.2141 14.3911C10.6882 14.901 10.9545 15.5926 10.9545 16.3137C10.9545 17.0348 10.6882 17.7264 10.2141 18.2363C9.73999 18.7462 9.09699 19.0326 8.42654 19.0326C7.75608 19.0326 7.11309 18.7462 6.639 18.2363C6.16492 17.7264 5.89858 17.0348 5.89858 16.3137C5.89858 15.5926 6.16492 14.901 6.639 14.3911ZM47.1883 2.71895H37.1969V5.4379V7.25053H47.1883V2.71895ZM55.6149 2.71895H49.7163V7.25053H58.9181L55.6149 2.71895ZM61.6157 14.3911C61.1416 13.8812 60.4986 13.5947 59.8282 13.5947C59.1577 13.5947 58.5147 13.8812 58.0406 14.3911C57.5665 14.901 57.3002 15.5926 57.3002 16.3137C57.3002 17.0348 57.5665 17.7264 58.0406 18.2363C58.5147 18.7462 59.1577 19.0326 59.8282 19.0326C60.4986 19.0326 61.1416 18.7462 61.6157 18.2363C62.0898 17.7264 62.3561 17.0348 62.3561 16.3137C62.3561 15.5926 62.0898 14.901 61.6157 14.3911Z" fill="#333562"/>
</svg>
