<svg width="49" height="22" viewBox="0 0 49 22" fill="none" xmlns="http://www.w3.org/2000/svg">
<path d="M24.5 0H13.3636L6.68182 5.78947H4.45455C1.98227 5.78947 0 7.85053 0 10.4211V17.3684H4.83318C5.79091 20.1474 8.30773 22 11.1364 22C13.965 22 16.4818 20.1474 17.4173 17.3684H31.5605C32.5182 20.1474 35.035 22 37.8636 22C40.6923 22 43.2091 20.1474 44.1445 17.3684H49V15.0526C49 12.4821 46.7059 11.6484 44.5455 10.4211L24.5 0ZM9.46591 8.10526L14.4773 3.47368H23.3864L32.2955 8.10526H9.46591ZM11.1364 11.5789C12.0224 11.5789 12.8722 11.9449 13.4987 12.5964C14.1253 13.2478 14.4773 14.1314 14.4773 15.0526C14.4773 15.9739 14.1253 16.8575 13.4987 17.5089C12.8722 18.1603 12.0224 18.5263 11.1364 18.5263C10.2503 18.5263 9.40053 18.1603 8.77398 17.5089C8.14744 16.8575 7.79545 15.9739 7.79545 15.0526C7.79545 14.1314 8.14744 13.2478 8.77398 12.5964C9.40053 11.9449 10.2503 11.5789 11.1364 11.5789ZM37.8636 11.5789C38.7497 11.5789 39.5995 11.9449 40.226 12.5964C40.8526 13.2478 41.2045 14.1314 41.2045 15.0526C41.2045 15.9739 40.8526 16.8575 40.226 17.5089C39.5995 18.1603 38.7497 18.5263 37.8636 18.5263C36.9776 18.5263 36.1278 18.1603 35.5013 17.5089C34.8747 16.8575 34.5227 15.9739 34.5227 15.0526C34.5227 14.1314 34.8747 13.2478 35.5013 12.5964C36.1278 11.9449 36.9776 11.5789 37.8636 11.5789Z" fill="#333562"/>
</svg>
