<svg width="55" height="55" viewBox="0 0 55 55" fill="none" xmlns="http://www.w3.org/2000/svg">
<g filter="url(#filter0_d_98_341)">
<rect width="48" height="48" rx="11" fill="#F5F6FB"/>
<path d="M22 31H25V34H22V31ZM24 14C29.35 14.22 31.68 19.62 28.5 23.67C27.67 24.67 26.33 25.33 25.67 26.17C25 27 25 28 25 29H22C22 27.33 22 25.92 22.67 24.92C23.33 23.92 24.67 23.33 25.5 22.67C27.92 20.43 27.32 17.26 24 17C23.2044 17 22.4413 17.3161 21.8787 17.8787C21.3161 18.4413 21 19.2044 21 20H18C18 18.4087 18.6321 16.8826 19.7574 15.7574C20.8826 14.6321 22.4087 14 24 14Z" fill="#333562"/>
</g>
<defs>
<filter id="filter0_d_98_341" x="0" y="0" width="55" height="55" filterUnits="userSpaceOnUse" color-interpolation-filters="sRGB">
<feFlood flood-opacity="0" result="BackgroundImageFix"/>
<feColorMatrix in="SourceAlpha" type="matrix" values="0 0 0 0 0 0 0 0 0 0 0 0 0 0 0 0 0 0 127 0" result="hardAlpha"/>
<feOffset dx="4" dy="4"/>
<feGaussianBlur stdDeviation="1.5"/>
<feComposite in2="hardAlpha" operator="out"/>
<feColorMatrix type="matrix" values="0 0 0 0 0.2 0 0 0 0 0.207843 0 0 0 0 0.384314 0 0 0 0.3 0"/>
<feBlend mode="normal" in2="BackgroundImageFix" result="effect1_dropShadow_98_341"/>
<feBlend mode="normal" in="SourceGraphic" in2="effect1_dropShadow_98_341" result="shape"/>
</filter>
</defs>
</svg>
